<svg width="40" height="40" viewBox="0 0 40 40" fill="none" xmlns="http://www.w3.org/2000/svg">
<path d="M21.7446 17.9618V10.2647H17.8961V17.9618H10.199V21.8103H17.8961V29.5073H21.7446V21.8103H29.4417V17.9618H21.7446ZM19.8203 39.1287C14.7169 39.1287 9.82243 37.1013 6.21374 33.4926C2.60504 29.8839 0.577698 24.9895 0.577698 19.886C0.577698 14.7826 2.60504 9.88811 6.21374 6.27941C9.82243 2.67072 14.7169 0.643372 19.8203 0.643372C24.9238 0.643372 29.8183 2.67072 33.4269 6.27941C37.0356 9.88811 39.063 14.7826 39.063 19.886C39.063 24.9895 37.0356 29.8839 33.4269 33.4926C29.8183 37.1013 24.9238 39.1287 19.8203 39.1287Z" fill="#F0F0F0"/>
</svg>
