<svg width="40" height="40" viewBox="0 0 40 40" fill="none" xmlns="http://www.w3.org/2000/svg">
<path fill-rule="evenodd" clip-rule="evenodd" d="M19.7783 39.1287C30.4057 39.1287 39.0209 30.5134 39.0209 19.886C39.0209 9.2586 30.4057 0.643372 19.7783 0.643372C9.15087 0.643372 0.535645 9.2586 0.535645 19.886C0.535645 30.5134 9.15087 39.1287 19.7783 39.1287ZM10.4319 24.5592V29.2324H15.1051L29.5921 14.7454C29.8127 14.5262 29.9733 14.2836 30.0737 14.0175C30.1741 13.7514 30.2243 13.4718 30.2243 13.1785C30.2251 12.9036 30.1749 12.6287 30.0737 12.3538C29.9725 12.079 29.812 11.8407 29.5921 11.6391L28.0802 10.0997C27.8786 9.87979 27.6403 9.71486 27.3654 9.6049C27.0905 9.49494 26.8065 9.43996 26.5133 9.43996C26.2208 9.43996 25.9415 9.49494 25.6754 9.6049C25.4093 9.71486 25.1663 9.87063 24.9464 10.0722L10.4319 24.5592ZM28.0252 13.1785L26.4858 14.7179L24.9464 13.1785L26.4858 11.6391L28.0252 13.1785Z" fill="#F0F0F0"/>
</svg>
