<svg width="39" height="40" viewBox="0 0 39 40" fill="none" xmlns="http://www.w3.org/2000/svg">
<path fill-rule="evenodd" clip-rule="evenodd" d="M19.7574 39.2283C30.3848 39.2283 39 30.613 39 19.9856C39 9.35821 30.3848 0.742981 19.7574 0.742981C9.12994 0.742981 0.514709 9.35821 0.514709 19.9856C0.514709 30.613 9.12994 39.2283 19.7574 39.2283ZM27.0098 9.78314C29.7217 10.5691 31.5499 13.4465 32.7646 18.8374C33.3792 21.563 33.606 23.6662 33.4588 25.2674C33.2652 27.3554 32.4175 28.6647 30.9387 29.16C30 29.4766 29.0333 29.354 28.0659 28.8019C27.3386 28.3865 26.6095 27.7264 25.838 26.7831C24.6106 25.2825 23.1897 24.8255 19.7562 24.8255C15.912 24.8255 14.6698 25.4844 13.6085 26.7831C12.6692 27.9305 11.2947 29.3321 9.58047 29.3321C9.21679 29.3309 8.8559 29.2697 8.5129 29.1511C6.01064 28.301 5.3583 24.6371 6.6836 18.8341C7.91612 13.4414 9.74313 10.5652 12.4407 9.78258C13.0321 9.61936 13.6437 9.53762 14.258 9.53971C15.0409 9.53971 15.7242 9.72748 16.4481 9.92707C17.3215 10.1671 18.3123 10.4392 19.7562 10.4392C21.2 10.4392 22.1903 10.1666 23.062 9.92651C23.7853 9.72748 24.4692 9.53971 25.2544 9.53971C25.8485 9.53701 26.4398 9.61901 27.0098 9.78314ZM15.1743 18.535H17.0071C17.2501 18.535 17.4832 18.4402 17.655 18.2715C17.8269 18.1028 17.9234 17.874 17.9234 17.6354C17.9234 17.3969 17.8269 17.1681 17.655 16.9994C17.4832 16.8307 17.2501 16.7359 17.0071 16.7359H15.1743V14.9369C15.1743 14.6983 15.0778 14.4695 14.9059 14.3008C14.7341 14.1321 14.501 14.0373 14.258 14.0373C14.0149 14.0373 13.7818 14.1321 13.61 14.3008C13.4381 14.4695 13.3416 14.6983 13.3416 14.9369V16.7359H11.5089C11.2658 16.7359 11.0327 16.8307 10.8609 16.9994C10.689 17.1681 10.5925 17.3969 10.5925 17.6354C10.5925 17.874 10.689 18.1028 10.8609 18.2715C11.0327 18.4402 11.2658 18.535 11.5089 18.535H13.3416V20.334C13.3416 20.5726 13.4381 20.8014 13.61 20.9701C13.7818 21.1388 14.0149 21.2335 14.258 21.2335C14.501 21.2335 14.7341 21.1388 14.9059 20.9701C15.0778 20.8014 15.1743 20.5726 15.1743 20.334V18.535ZM21.1816 18.5703C21.37 18.6939 21.5915 18.7598 21.818 18.7598C22.1218 18.7598 22.4132 18.6414 22.628 18.4305C22.8428 18.2196 22.9635 17.9336 22.9635 17.6354C22.9635 17.4131 22.8963 17.1957 22.7704 17.0108C22.6446 16.8258 22.4657 16.6817 22.2564 16.5966C22.0471 16.5115 21.8167 16.4893 21.5945 16.5326C21.3723 16.576 21.1682 16.6831 21.008 16.8404C20.8479 16.9976 20.7388 17.198 20.6946 17.4161C20.6504 17.6342 20.673 17.8603 20.7597 18.0657C20.8464 18.2712 20.9933 18.4468 21.1816 18.5703ZM23.7013 21.0438C23.8898 21.1675 24.1114 21.2335 24.338 21.2335C24.6413 21.2335 24.9322 21.1155 25.147 20.9052C25.3617 20.6949 25.4827 20.4097 25.4835 20.1119C25.4841 19.8894 25.4174 19.6718 25.2918 19.4865C25.1663 19.3012 24.9876 19.1567 24.7784 19.0711C24.5691 18.9856 24.3387 18.9629 24.1163 19.006C23.8939 19.0491 23.6896 19.1559 23.5291 19.3131C23.3686 19.4702 23.2592 19.6705 23.2148 19.8887C23.1704 20.1069 23.1929 20.3332 23.2795 20.5388C23.3661 20.7444 23.5129 20.9202 23.7013 21.0438ZM23.7016 16.0967C23.89 16.2202 24.1115 16.2861 24.338 16.2861C24.6418 16.2861 24.9332 16.1677 25.148 15.9568C25.3628 15.746 25.4835 15.46 25.4835 15.1617C25.4835 14.9394 25.4163 14.722 25.2904 14.5371C25.1646 14.3521 24.9857 14.208 24.7764 14.1229C24.5671 14.0378 24.3368 14.0156 24.1146 14.0589C23.8924 14.1023 23.6883 14.2094 23.5281 14.3667C23.3679 14.5239 23.2588 14.7243 23.2146 14.9424C23.1704 15.1605 23.1931 15.3866 23.2798 15.592C23.3665 15.7975 23.5133 15.9731 23.7016 16.0967ZM26.2217 18.5703C26.41 18.6939 26.6315 18.7598 26.858 18.7598C27.1618 18.7598 27.4532 18.6414 27.668 18.4305C27.8828 18.2196 28.0035 17.9336 28.0035 17.6354C28.0035 17.4131 27.9363 17.1957 27.8105 17.0108C27.6846 16.8258 27.5057 16.6817 27.2964 16.5966C27.0871 16.5115 26.8568 16.4893 26.6346 16.5326C26.4124 16.576 26.2083 16.6831 26.0481 16.8404C25.8879 16.9976 25.7788 17.198 25.7346 17.4161C25.6904 17.6342 25.7131 17.8603 25.7998 18.0657C25.8865 18.2712 26.0333 18.4468 26.2217 18.5703Z" fill="#F0F0F0"/>
</svg>
