<svg width="38" height="37" viewBox="0 0 38 37" fill="none" xmlns="http://www.w3.org/2000/svg">
<path d="M3.82159 18.5159L11.5643 24.6492V20.0492H25.5012V16.9825H11.5643V12.3825L3.82159 18.5159Z" fill="#F0F0F0"/>
<path d="M20.8571 4.71429C19.026 4.70926 17.2121 5.06406 15.5205 5.75813C13.8288 6.4522 12.2931 7.47175 11.0022 8.7577L13.1918 10.9258C15.239 8.89877 17.9614 7.78097 20.8571 7.78097C23.7529 7.78097 26.4752 8.89877 28.5224 10.9258C30.5696 12.9529 31.6985 15.6485 31.6985 18.5159C31.6985 21.3832 30.5696 24.0788 28.5224 26.1059C26.4752 28.133 23.7529 29.2508 20.8571 29.2508C17.9614 29.2508 15.239 28.133 13.1918 26.1059L11.0022 28.2741C13.6332 30.8807 17.1329 32.3175 20.8571 32.3175C24.5814 32.3175 28.0811 30.8807 30.7121 28.2741C33.3446 25.6689 34.7956 22.2036 34.7956 18.5159C34.7956 14.8282 33.3446 11.3628 30.7121 8.7577C29.4212 7.47175 27.8854 6.4522 26.1938 5.75813C24.5022 5.06406 22.6882 4.70926 20.8571 4.71429Z" fill="#F0F0F0"/>
</svg>
