<svg width="32" height="31" viewBox="0 0 32 31" fill="none" xmlns="http://www.w3.org/2000/svg">
<path fill-rule="evenodd" clip-rule="evenodd" d="M19.09 1.20831C19.224 1.46592 19.2578 1.79669 19.324 2.45824C19.4503 3.70816 19.5134 4.33312 19.7782 4.67761C19.9431 4.89151 20.1623 5.05834 20.4135 5.16115C20.6647 5.26395 20.9389 5.29908 21.2083 5.26294C21.6393 5.20655 22.1319 4.8087 23.1141 4.01302C23.6328 3.59079 23.893 3.38044 24.1716 3.29203C24.5265 3.17974 24.9105 3.1987 25.2523 3.34538C25.5217 3.46122 25.7603 3.69597 26.2329 4.16545L27.6091 5.52817C28.0833 5.99766 28.3203 6.2324 28.4373 6.49915C28.5855 6.83763 28.6046 7.21782 28.4912 7.56921C28.4019 7.84511 28.1895 8.10271 27.7646 8.6164C26.9595 9.59043 26.5577 10.0767 26.4992 10.505C26.4632 10.7716 26.499 11.0429 26.6031 11.2913C26.7072 11.5398 26.8759 11.7565 27.0919 11.9196C27.4383 12.1817 28.071 12.2442 29.3348 12.3692C30.0014 12.4348 30.3354 12.4683 30.5971 12.6009C30.9273 12.7704 31.1843 13.0525 31.3207 13.3951C31.43 13.6649 31.43 13.9972 31.43 14.6618V16.5885C31.43 17.2531 31.43 17.5854 31.3222 17.8536C31.1854 18.1973 30.9272 18.48 30.5956 18.6493C30.3354 18.7819 30.0014 18.8155 29.3333 18.881C28.071 19.006 27.4398 19.0685 27.0919 19.3307C26.8759 19.494 26.7074 19.7111 26.6036 19.9598C26.4997 20.2086 26.4643 20.4801 26.5008 20.7468C26.5593 21.1736 26.961 21.6613 27.7646 22.6338C28.1895 23.1475 28.4019 23.4036 28.4912 23.681C28.6046 24.0324 28.5855 24.4126 28.4373 24.7511C28.3203 25.0178 28.0833 25.2526 27.6091 25.7221L26.2329 27.0833C25.7588 27.5543 25.5217 27.789 25.2523 27.9033C24.9105 28.05 24.5265 28.069 24.1716 27.9567C23.893 27.8683 23.6328 27.6579 23.1141 27.2372C22.1304 26.4415 21.6393 26.0437 21.2083 25.9873C20.9389 25.9512 20.6647 25.9863 20.4135 26.0891C20.1623 26.1919 19.9431 26.3587 19.7782 26.5726C19.5134 26.9156 19.4503 27.5406 19.324 28.792C19.2578 29.4536 19.224 29.7843 19.09 30.0419C18.9194 30.37 18.6345 30.6256 18.288 30.7614C18.0155 30.8681 17.6799 30.8681 17.0087 30.8681H15.0629C14.3917 30.8681 14.0562 30.8681 13.7852 30.7614C13.4382 30.6259 13.1526 30.3702 12.9816 30.0419C12.8477 29.7843 12.8139 29.4536 12.7477 28.792C12.6214 27.5421 12.5583 26.9171 12.2935 26.5726C12.1287 26.359 11.9097 26.1923 11.6588 26.0895C11.4079 25.9867 11.1341 25.9515 10.865 25.9873C10.4324 26.0437 9.94131 26.4415 8.95763 27.2372C8.43884 27.6595 8.17868 27.8698 7.90005 27.9582C7.54518 28.0705 7.16122 28.0515 6.81938 27.9049C6.54999 27.789 6.31138 27.5543 5.83878 27.0848L4.46254 25.7221C3.9884 25.2526 3.75134 25.0178 3.63434 24.7511C3.48621 24.4126 3.46706 24.0324 3.58046 23.681C3.66975 23.4051 3.88219 23.1475 4.30706 22.6338C5.11218 21.6598 5.51396 21.1736 5.57092 20.7452C5.60713 20.4788 5.57152 20.2076 5.4677 19.9592C5.36388 19.7107 5.19555 19.4939 4.97979 19.3307C4.63342 19.0685 4.00072 19.006 2.73686 18.881C2.0703 18.8155 1.73625 18.7819 1.47455 18.6493C1.14441 18.4798 0.887408 18.1977 0.751022 17.8552C0.641724 17.5854 0.641724 17.2531 0.641724 16.5885V14.6618C0.641724 13.9972 0.641724 13.6649 0.749482 13.3966C0.886316 13.053 1.14452 12.7702 1.47608 12.6009C1.73625 12.4683 2.0703 12.4348 2.7384 12.3692C4.00072 12.2442 4.63342 12.1817 4.97979 11.9196C5.19583 11.7565 5.36446 11.5398 5.46855 11.2913C5.57265 11.0429 5.60849 10.7716 5.57246 10.505C5.51396 10.0767 5.11064 9.59043 4.30706 8.61488C3.88219 8.10119 3.66975 7.84511 3.58046 7.56768C3.46706 7.21629 3.48621 6.83611 3.63434 6.49763C3.75134 6.2324 3.9884 5.99613 4.46254 5.52665L5.83878 4.16545C6.31292 3.69597 6.54999 3.4597 6.81938 3.34538C7.16122 3.1987 7.54518 3.17974 7.90005 3.29203C8.17868 3.38044 8.43884 3.59079 8.95763 4.0115C9.94131 4.80718 10.4324 5.20502 10.8634 5.26294C11.1331 5.29919 11.4077 5.26397 11.6592 5.16088C11.9107 5.05778 12.1301 4.8905 12.2951 4.67609C12.5568 4.33312 12.6214 3.70816 12.7477 2.45671C12.8139 1.79669 12.8477 1.46592 12.9816 1.20679C13.1525 0.879324 13.4375 0.624266 13.7837 0.488842C14.0562 0.382141 14.3917 0.382141 15.0629 0.382141H17.0087C17.6799 0.382141 18.0155 0.382141 18.2865 0.488842C18.6335 0.624332 18.9191 0.88 19.09 1.20831ZM16.0358 21.7223C17.669 21.7223 19.2352 21.0799 20.39 19.9365C21.5447 18.793 22.1935 17.2422 22.1935 15.6251C22.1935 14.008 21.5447 12.4572 20.39 11.3138C19.2352 10.1703 17.669 9.52793 16.0358 9.52793C14.4027 9.52793 12.8365 10.1703 11.6817 11.3138C10.5269 12.4572 9.87819 14.008 9.87819 15.6251C9.87819 17.2422 10.5269 18.793 11.6817 19.9365C12.8365 21.0799 14.4027 21.7223 16.0358 21.7223Z" fill="#F0F0F0"/>
</svg>
